<?xml version="1.0" encoding="UTF-8" standalone="no"?>
<!DOCTYPE svg PUBLIC "-//W3C//DTD SVG 1.1//EN"
 "http://www.w3.org/Graphics/SVG/1.1/DTD/svg11.dtd">
<!-- Generated by graphviz version 2.43.0 (0)
 -->
<!-- Title: %3 Pages: 1 -->
<svg width="342pt" height="258pt"
 viewBox="0.00 0.00 342.39 257.72" xmlns="http://www.w3.org/2000/svg" xmlns:xlink="http://www.w3.org/1999/xlink">
<g id="graph0" class="graph" transform="scale(1 1) rotate(0) translate(4 253.72)">
<title>%3</title>
<polygon fill="white" stroke="transparent" points="-4,4 -4,-253.72 338.39,-253.72 338.39,4 -4,4"/>
<text text-anchor="middle" x="167.19" y="-7.8" font-family="Times,serif" font-size="14.00">Root in world (6)</text>
<!-- 6&#45;&gt;8 -->
<g id="edge14" class="edge">
<title>6&#45;&gt;8</title>
<path fill="none" stroke="black" d="M181.22,-122.18C150.04,-109.87 98.76,-93.07 63.97,-83.68"/>
<polygon fill="black" stroke="black" points="54.18,-81.13 64.99,-79.3 59.02,-82.39 63.86,-83.65 63.86,-83.65 63.86,-83.65 59.02,-82.39 62.72,-88.01 54.18,-81.13 54.18,-81.13"/>
</g>
<!-- 6&#45;&gt;4 -->
<g id="edge13" class="edge">
<title>6&#45;&gt;4</title>
<path fill="none" stroke="black" d="M201.39,-118.03C192.95,-103.61 178.78,-83.42 166.02,-67.3"/>
<polygon fill="black" stroke="black" points="159.52,-59.29 169.32,-64.22 162.67,-63.17 165.82,-67.05 165.82,-67.05 165.82,-67.05 162.67,-63.17 162.33,-69.89 159.52,-59.29 159.52,-59.29"/>
</g>
<!-- 6&#45;&gt;2 -->
<g id="edge12" class="edge">
<title>6&#45;&gt;2</title>
<path fill="none" stroke="black" d="M235.44,-142.45C246.13,-143.12 258.6,-143.28 270.13,-142.92"/>
<polygon fill="black" stroke="black" points="280.37,-142.45 270.59,-147.41 275.37,-142.68 270.38,-142.91 270.38,-142.91 270.38,-142.91 275.37,-142.68 270.17,-138.42 280.37,-142.45 280.37,-142.45"/>
</g>
<!-- 7&#45;&gt;3 -->
<g id="edge2" class="edge">
<title>7&#45;&gt;3</title>
<path fill="none" stroke="black" d="M112.08,-216.65C97.67,-211.02 79.73,-205.08 64.04,-200.69"/>
<polygon fill="black" stroke="black" points="54.12,-198.06 64.94,-196.28 58.95,-199.34 63.78,-200.63 63.78,-200.63 63.78,-200.63 58.95,-199.34 62.62,-204.97 54.12,-198.06 54.12,-198.06"/>
</g>
<!-- 7&#45;&gt;4 -->
<g id="edge4" class="edge">
<title>7&#45;&gt;4</title>
<path fill="none" stroke="black" stroke-dasharray="1,5" d="M143.28,-213.43C146.42,-180.04 146.69,-108.99 144.07,-69.3"/>
<polygon fill="black" stroke="black" points="143.28,-59.23 148.55,-68.85 143.67,-64.22 144.06,-69.2 144.06,-69.2 144.06,-69.2 143.67,-64.22 139.57,-69.55 143.28,-59.23 143.28,-59.23"/>
</g>
<!-- 8&#45;&gt;6 -->
<g id="edge7" class="edge">
<title>8&#45;&gt;6</title>
<path fill="none" stroke="black" d="M54.17,-91.6C85.35,-103.92 136.62,-120.71 171.42,-130.1"/>
<polygon fill="black" stroke="black" points="181.2,-132.66 170.39,-134.49 176.37,-131.4 171.53,-130.13 171.53,-130.13 171.53,-130.13 176.37,-131.4 172.66,-125.78 181.2,-132.66 181.2,-132.66"/>
</g>
<!-- 8&#45;&gt;3 -->
<g id="edge6" class="edge">
<title>8&#45;&gt;3</title>
<path fill="none" stroke="black" d="M21.96,-95.58C20.01,-114.56 19.73,-144.61 21.12,-166.76"/>
<polygon fill="black" stroke="black" points="21.94,-176.92 16.65,-167.32 21.54,-171.94 21.14,-166.95 21.14,-166.95 21.14,-166.95 21.54,-171.94 25.62,-166.59 21.94,-176.92 21.94,-176.92"/>
</g>
<!-- 8&#45;&gt;4 -->
<g id="edge5" class="edge">
<title>8&#45;&gt;4</title>
<path fill="none" stroke="black" d="M54.22,-74.64C68.76,-70.99 86.86,-65.35 102.61,-59.63"/>
<polygon fill="black" stroke="black" points="112.06,-56.08 104.28,-63.81 107.38,-57.84 102.7,-59.6 102.7,-59.6 102.7,-59.6 107.38,-57.84 101.12,-55.39 112.06,-56.08 112.06,-56.08"/>
</g>
<!-- 3&#45;&gt;7 -->
<g id="edge1" class="edge">
<title>3&#45;&gt;7</title>
<path fill="none" stroke="black" d="M54.02,-210.37C68.43,-215.99 86.37,-221.94 102.06,-226.32"/>
<polygon fill="black" stroke="black" points="111.99,-228.96 101.17,-230.74 107.16,-227.68 102.32,-226.39 102.32,-226.39 102.32,-226.39 107.16,-227.68 103.48,-222.04 111.99,-228.96 111.99,-228.96"/>
</g>
<!-- 3&#45;&gt;8 -->
<g id="edge3" class="edge">
<title>3&#45;&gt;8</title>
<path fill="none" stroke="black" stroke-dasharray="1,5" d="M32.04,-177.14C33.99,-158.16 34.27,-128.11 32.88,-105.96"/>
<polygon fill="black" stroke="black" points="32.06,-95.8 37.35,-105.4 32.46,-100.78 32.86,-105.77 32.86,-105.77 32.86,-105.77 32.46,-100.78 28.38,-106.13 32.06,-95.8 32.06,-95.8"/>
</g>
<!-- 4&#45;&gt;6 -->
<g id="edge10" class="edge">
<title>4&#45;&gt;6</title>
<path fill="none" stroke="black" d="M146.1,-59.33C154.53,-73.75 168.71,-93.94 181.47,-110.06"/>
<polygon fill="black" stroke="black" points="187.97,-118.07 178.17,-113.14 184.82,-114.19 181.67,-110.31 181.67,-110.31 181.67,-110.31 184.82,-114.19 185.16,-107.47 187.97,-118.07 187.97,-118.07"/>
</g>
<!-- 4&#45;&gt;7 -->
<g id="edge9" class="edge">
<title>4&#45;&gt;7</title>
<path fill="none" stroke="black" d="M134.92,-59.29C131.78,-92.68 131.52,-163.73 134.14,-203.42"/>
<polygon fill="black" stroke="black" points="134.93,-213.49 129.66,-203.87 134.54,-208.5 134.14,-203.52 134.14,-203.52 134.14,-203.52 134.54,-208.5 138.63,-203.17 134.93,-213.49 134.93,-213.49"/>
</g>
<!-- 4&#45;&gt;8 -->
<g id="edge8" class="edge">
<title>4&#45;&gt;8</title>
<path fill="none" stroke="black" d="M111.88,-43.79C97.34,-47.44 79.24,-53.08 63.49,-58.79"/>
<polygon fill="black" stroke="black" points="54.04,-62.34 61.82,-54.61 58.72,-60.58 63.4,-58.82 63.4,-58.82 63.4,-58.82 58.72,-60.58 64.99,-63.03 54.04,-62.34 54.04,-62.34"/>
</g>
<!-- 2&#45;&gt;6 -->
<g id="edge11" class="edge">
<title>2&#45;&gt;6</title>
<path fill="none" stroke="black" d="M280.33,-130.27C269.64,-129.6 257.17,-129.44 245.65,-129.8"/>
<polygon fill="black" stroke="black" points="235.41,-130.27 245.19,-125.31 240.4,-130.04 245.39,-129.81 245.39,-129.81 245.39,-129.81 240.4,-130.04 245.6,-134.3 235.41,-130.27 235.41,-130.27"/>
</g>
<!-- 6 -->
<g id="node1" class="node">
<title>6</title>
<polygon fill="ghostwhite" stroke="darkgreen" points="235.39,-154.36 185.39,-154.36 181.39,-150.36 181.39,-118.36 231.39,-118.36 235.39,-122.36 235.39,-154.36"/>
<polyline fill="none" stroke="darkgreen" points="231.39,-150.36 181.39,-150.36 "/>
<polyline fill="none" stroke="darkgreen" points="231.39,-150.36 231.39,-118.36 "/>
<polyline fill="none" stroke="darkgreen" points="231.39,-150.36 235.39,-154.36 "/>
<text text-anchor="middle" x="208.39" y="-132.66" font-family="Times,serif" font-size="14.00">6</text>
</g>
<!-- 7 -->
<g id="node2" class="node">
<title>7</title>
<polygon fill="ghostwhite" stroke="darkred" points="166.1,-249.72 116.1,-249.72 112.1,-245.72 112.1,-213.72 162.1,-213.72 166.1,-217.72 166.1,-249.72"/>
<polyline fill="none" stroke="darkred" points="162.1,-245.72 112.1,-245.72 "/>
<polyline fill="none" stroke="darkred" points="162.1,-245.72 162.1,-213.72 "/>
<polyline fill="none" stroke="darkred" points="162.1,-245.72 166.1,-249.72 "/>
<text text-anchor="start" x="122.1" y="-229.02" font-family="Times,serif" font-size="14.00"> 7:</text>
<text text-anchor="start" x="141.1" y="-229.02" font-family="Times,serif" font-weight="bold" font-size="14.00">p</text>
<text text-anchor="start" x="151.1" y="-229.02" font-family="Times,serif" font-size="14.00"> </text>
</g>
<!-- 8 -->
<g id="node3" class="node">
<title>8</title>
<polygon fill="ghostwhite" stroke="darkred" points="54,-95.42 4,-95.42 0,-91.42 0,-59.42 50,-59.42 54,-63.42 54,-95.42"/>
<polyline fill="none" stroke="darkred" points="50,-91.42 0,-91.42 "/>
<polyline fill="none" stroke="darkred" points="50,-91.42 50,-59.42 "/>
<polyline fill="none" stroke="darkred" points="50,-91.42 54,-95.42 "/>
<text text-anchor="start" x="10" y="-74.72" font-family="Times,serif" font-size="14.00"> 8:</text>
<text text-anchor="start" x="29" y="-74.72" font-family="Times,serif" font-weight="bold" font-size="14.00">p</text>
<text text-anchor="start" x="39" y="-74.72" font-family="Times,serif" font-size="14.00"> </text>
</g>
<!-- 3 -->
<g id="node4" class="node">
<title>3</title>
<polygon fill="ghostwhite" stroke="darkred" points="54,-213.3 4,-213.3 0,-209.3 0,-177.3 50,-177.3 54,-181.3 54,-213.3"/>
<polyline fill="none" stroke="darkred" points="50,-209.3 0,-209.3 "/>
<polyline fill="none" stroke="darkred" points="50,-209.3 50,-177.3 "/>
<polyline fill="none" stroke="darkred" points="50,-209.3 54,-213.3 "/>
<text text-anchor="middle" x="27" y="-191.6" font-family="Times,serif" font-size="14.00">3</text>
</g>
<!-- 4 -->
<g id="node5" class="node">
<title>4</title>
<polygon fill="ghostwhite" stroke="darkred" points="166.1,-59 116.1,-59 112.1,-55 112.1,-23 162.1,-23 166.1,-27 166.1,-59"/>
<polyline fill="none" stroke="darkred" points="162.1,-55 112.1,-55 "/>
<polyline fill="none" stroke="darkred" points="162.1,-55 162.1,-23 "/>
<polyline fill="none" stroke="darkred" points="162.1,-55 166.1,-59 "/>
<text text-anchor="middle" x="139.1" y="-37.3" font-family="Times,serif" font-size="14.00">4</text>
</g>
<!-- 2 -->
<g id="node6" class="node">
<title>2</title>
<polygon fill="ghostwhite" stroke="darkred" points="334.39,-154.36 284.39,-154.36 280.39,-150.36 280.39,-118.36 330.39,-118.36 334.39,-122.36 334.39,-154.36"/>
<polyline fill="none" stroke="darkred" points="330.39,-150.36 280.39,-150.36 "/>
<polyline fill="none" stroke="darkred" points="330.39,-150.36 330.39,-118.36 "/>
<polyline fill="none" stroke="darkred" points="330.39,-150.36 334.39,-154.36 "/>
<text text-anchor="middle" x="307.39" y="-132.66" font-family="Times,serif" font-size="14.00">2</text>
</g>
</g>
</svg>
